<svg width="251" height="251" viewBox="0 0 251 251" fill="none" xmlns="http://www.w3.org/2000/svg">
<path d="M60.2235 192.511C51.1511 184.641 40.3853 173.012 41.353 142.432C41.9865 122.414 43.8805 111.354 45.2284 103.482C46.4544 96.3225 47.2286 91.8014 46.1915 85.5786C45.6239 82.1729 44.5918 78.5042 43.5228 74.7041C40.4911 63.9274 37.1625 52.0948 43.2884 42.2128C45.123 41.4467 51.8768 40.7007 64.2152 43.8458C70.4175 45.4268 74.0375 46.861 76.9397 48.0109C81.2545 49.7203 83.9827 50.8013 91.2509 50.8013C97.213 50.8013 102.579 50.3794 108.047 49.9494C113.261 49.5395 118.569 49.1222 124.577 49.0563V49.0473C124.85 49.0473 125.122 49.048 125.393 49.0495C125.664 49.048 125.936 49.0473 126.21 49.0473V49.0563C132.217 49.1222 137.525 49.5395 142.739 49.9494C148.208 50.3794 153.573 50.8013 159.535 50.8013C166.804 50.8013 169.532 49.7203 173.847 48.0109C176.749 46.861 180.369 45.4268 186.571 43.8458C198.909 40.7007 205.663 41.4467 207.498 42.2128C213.624 52.0948 210.295 63.9273 207.263 74.7041C206.194 78.5042 205.162 82.1729 204.595 85.5786C203.558 91.8014 204.332 96.3225 205.558 103.482C206.906 111.354 208.8 122.414 209.433 142.432C210.401 173.012 199.635 184.641 190.563 192.511C172.74 207.974 148.18 209.5 126.21 209.565V209.567C106.613 209.749 78.4891 208.358 60.2235 192.511Z" fill="#C06EFF"/>
<path d="M60.2235 192.511C51.1511 184.641 40.3853 173.012 41.353 142.432C41.9865 122.414 43.8805 111.354 45.2284 103.482C46.4544 96.3225 47.2286 91.8014 46.1915 85.5786C45.6239 82.1729 44.5918 78.5042 43.5228 74.7041C40.4911 63.9274 37.1625 52.0948 43.2884 42.2128C45.123 41.4467 51.8768 40.7007 64.2152 43.8458C70.4175 45.4268 74.0375 46.861 76.9397 48.0109C81.2545 49.7203 83.9827 50.8013 91.2509 50.8013C97.213 50.8013 102.579 50.3794 108.047 49.9494C113.261 49.5395 118.569 49.1222 124.577 49.0563V49.0473C124.85 49.0473 125.122 49.048 125.393 49.0495C125.664 49.048 125.936 49.0473 126.21 49.0473V49.0563C132.217 49.1222 137.525 49.5395 142.739 49.9494C148.208 50.3794 153.573 50.8013 159.535 50.8013C166.804 50.8013 169.532 49.7203 173.847 48.0109C176.749 46.861 180.369 45.4268 186.571 43.8458C198.909 40.7007 205.663 41.4467 207.498 42.2128C213.624 52.0948 210.295 63.9273 207.263 74.7041C206.194 78.5042 205.162 82.1729 204.595 85.5786C203.558 91.8014 204.332 96.3225 205.558 103.482C206.906 111.354 208.8 122.414 209.433 142.432C210.401 173.012 199.635 184.641 190.563 192.511C172.74 207.974 148.18 209.5 126.21 209.565V209.567C106.613 209.749 78.4891 208.358 60.2235 192.511Z" fill="url(#paint0_radial_1_15366)"/>
<path d="M60.2235 192.511C51.1511 184.641 40.3853 173.012 41.353 142.432C41.9865 122.414 43.8805 111.354 45.2284 103.482C46.4544 96.3225 47.2286 91.8014 46.1915 85.5786C45.6239 82.1729 44.5918 78.5042 43.5228 74.7041C40.4911 63.9274 37.1625 52.0948 43.2884 42.2128C45.123 41.4467 51.8768 40.7007 64.2152 43.8458C70.4175 45.4268 74.0375 46.861 76.9397 48.0109C81.2545 49.7203 83.9827 50.8013 91.2509 50.8013C97.213 50.8013 102.579 50.3794 108.047 49.9494C113.261 49.5395 118.569 49.1222 124.577 49.0563V49.0473C124.85 49.0473 125.122 49.048 125.393 49.0495C125.664 49.048 125.936 49.0473 126.21 49.0473V49.0563C132.217 49.1222 137.525 49.5395 142.739 49.9494C148.208 50.3794 153.573 50.8013 159.535 50.8013C166.804 50.8013 169.532 49.7203 173.847 48.0109C176.749 46.861 180.369 45.4268 186.571 43.8458C198.909 40.7007 205.663 41.4467 207.498 42.2128C213.624 52.0948 210.295 63.9273 207.263 74.7041C206.194 78.5042 205.162 82.1729 204.595 85.5786C203.558 91.8014 204.332 96.3225 205.558 103.482C206.906 111.354 208.8 122.414 209.433 142.432C210.401 173.012 199.635 184.641 190.563 192.511C172.74 207.974 148.18 209.5 126.21 209.565V209.567C106.613 209.749 78.4891 208.358 60.2235 192.511Z" fill="url(#paint1_linear_1_15366)"/>
<mask id="mask0_1_15366" style="mask-type:alpha" maskUnits="userSpaceOnUse" x="39" y="41" width="172" height="169">
<path d="M60.2235 192.511C51.1511 184.641 40.3853 173.012 41.353 142.432C41.9865 122.414 43.8805 111.354 45.2284 103.482C46.4544 96.3225 47.2286 91.8014 46.1915 85.5786C45.6239 82.1729 44.5918 78.5042 43.5228 74.7041C40.4911 63.9274 37.1625 52.0948 43.2884 42.2128C45.123 41.4467 51.8768 40.7007 64.2152 43.8458C70.4175 45.4268 74.0375 46.861 76.9397 48.0109C81.2545 49.7203 83.9827 50.8013 91.2509 50.8013C97.213 50.8013 102.579 50.3794 108.047 49.9494C113.261 49.5395 118.569 49.1222 124.577 49.0563V49.0473C124.85 49.0473 125.122 49.048 125.393 49.0495C125.664 49.048 125.936 49.0473 126.21 49.0473V49.0563C132.217 49.1222 137.525 49.5395 142.739 49.9494C148.208 50.3794 153.573 50.8013 159.535 50.8013C166.804 50.8013 169.532 49.7203 173.847 48.0109C176.749 46.861 180.369 45.4268 186.571 43.8458C198.909 40.7007 205.663 41.4467 207.498 42.2128C213.624 52.0948 210.295 63.9273 207.264 74.7041C206.195 78.5042 205.162 82.1729 204.595 85.5786C203.558 91.8014 204.332 96.3225 205.558 103.482C206.906 111.354 208.8 122.414 209.433 142.432C210.401 173.012 199.635 184.641 190.563 192.511C172.74 207.974 148.18 209.5 126.21 209.565V209.567C106.613 209.749 78.4891 208.358 60.2235 192.511Z" fill="#C06EFF"/>
<path d="M60.2235 192.511C51.1511 184.641 40.3853 173.012 41.353 142.432C41.9865 122.414 43.8805 111.354 45.2284 103.482C46.4544 96.3225 47.2286 91.8014 46.1915 85.5786C45.6239 82.1729 44.5918 78.5042 43.5228 74.7041C40.4911 63.9274 37.1625 52.0948 43.2884 42.2128C45.123 41.4467 51.8768 40.7007 64.2152 43.8458C70.4175 45.4268 74.0375 46.861 76.9397 48.0109C81.2545 49.7203 83.9827 50.8013 91.2509 50.8013C97.213 50.8013 102.579 50.3794 108.047 49.9494C113.261 49.5395 118.569 49.1222 124.577 49.0563V49.0473C124.85 49.0473 125.122 49.048 125.393 49.0495C125.664 49.048 125.936 49.0473 126.21 49.0473V49.0563C132.217 49.1222 137.525 49.5395 142.739 49.9494C148.208 50.3794 153.573 50.8013 159.535 50.8013C166.804 50.8013 169.532 49.7203 173.847 48.0109C176.749 46.861 180.369 45.4268 186.571 43.8458C198.909 40.7007 205.663 41.4467 207.498 42.2128C213.624 52.0948 210.295 63.9273 207.264 74.7041C206.195 78.5042 205.162 82.1729 204.595 85.5786C203.558 91.8014 204.332 96.3225 205.558 103.482C206.906 111.354 208.8 122.414 209.433 142.432C210.401 173.012 199.635 184.641 190.563 192.511C172.74 207.974 148.18 209.5 126.21 209.565V209.567C106.613 209.749 78.4891 208.358 60.2235 192.511Z" fill="url(#paint2_radial_1_15366)"/>
<path d="M60.2235 192.511C51.1511 184.641 40.3853 173.012 41.353 142.432C41.9865 122.414 43.8805 111.354 45.2284 103.482C46.4544 96.3225 47.2286 91.8014 46.1915 85.5786C45.6239 82.1729 44.5918 78.5042 43.5228 74.7041C40.4911 63.9274 37.1625 52.0948 43.2884 42.2128C45.123 41.4467 51.8768 40.7007 64.2152 43.8458C70.4175 45.4268 74.0375 46.861 76.9397 48.0109C81.2545 49.7203 83.9827 50.8013 91.2509 50.8013C97.213 50.8013 102.579 50.3794 108.047 49.9494C113.261 49.5395 118.569 49.1222 124.577 49.0563V49.0473C124.85 49.0473 125.122 49.048 125.393 49.0495C125.664 49.048 125.936 49.0473 126.21 49.0473V49.0563C132.217 49.1222 137.525 49.5395 142.739 49.9494C148.208 50.3794 153.573 50.8013 159.535 50.8013C166.804 50.8013 169.532 49.7203 173.847 48.0109C176.749 46.861 180.369 45.4268 186.571 43.8458C198.909 40.7007 205.663 41.4467 207.498 42.2128C213.624 52.0948 210.295 63.9273 207.264 74.7041C206.195 78.5042 205.162 82.1729 204.595 85.5786C203.558 91.8014 204.332 96.3225 205.558 103.482C206.906 111.354 208.8 122.414 209.433 142.432C210.401 173.012 199.635 184.641 190.563 192.511C172.74 207.974 148.18 209.5 126.21 209.565V209.567C106.613 209.749 78.4891 208.358 60.2235 192.511Z" fill="url(#paint3_linear_1_15366)"/>
</mask>
<g mask="url(#mask0_1_15366)">
<g opacity="0.45" filter="url(#filter0_f_1_15366)">
<ellipse cx="79.5176" cy="147.573" rx="32.2371" ry="36.2289" fill="#6346F9"/>
</g>
<g opacity="0.45" filter="url(#filter1_f_1_15366)">
<ellipse cx="129.718" cy="61.9301" rx="32.2371" ry="36.2289" fill="#6346F9"/>
</g>
<g opacity="0.75" filter="url(#filter2_f_1_15366)">
<ellipse cx="203.748" cy="45.902" rx="20.2616" ry="22.7414" fill="#6346F9"/>
</g>
<g opacity="0.75" filter="url(#filter3_f_1_15366)">
<ellipse cx="46.7357" cy="41.5475" rx="20.2616" ry="22.7414" fill="#6346F9"/>
</g>
<g opacity="0.45" filter="url(#filter4_f_1_15366)">
<ellipse cx="32.2371" cy="36.2289" rx="32.2371" ry="36.2289" transform="matrix(-1 0 0 1 202.478 110.981)" fill="#0527FC"/>
</g>
</g>
<path d="M196.732 155.798C195.583 157.068 196.369 158.702 197.518 158.943C200.24 158.399 206.167 157.613 211.61 157.31C217.054 157.008 219.292 157.855 221.469 157.976C223.211 158.073 224.009 156.847 224.191 156.222C225.461 151.444 219.171 151.202 211.852 151.927C205.998 152.508 199.333 154.75 196.732 155.798Z" fill="url(#paint4_linear_1_15366)"/>
<path d="M197.593 160.905C196.279 161.841 196.812 163.569 197.821 164.024C200.435 164.074 205.816 164.47 210.885 165.294C215.954 166.117 217.737 167.766 219.715 168.318C221.298 168.759 222.586 167.592 222.921 166.866C224.708 162.995 219.167 160.976 212.287 160.162C206.784 159.511 200.198 160.467 197.593 160.905Z" fill="url(#paint5_linear_1_15366)"/>
<path d="M196.732 155.798C195.583 157.068 196.369 158.702 197.518 158.943C200.24 158.399 206.167 157.613 211.61 157.31C217.054 157.008 219.292 157.855 221.469 157.976C223.211 158.073 224.009 156.847 224.191 156.222C225.461 151.444 219.171 151.202 211.852 151.927C205.998 152.508 199.333 154.75 196.732 155.798Z" fill="url(#paint6_linear_1_15366)"/>
<path d="M53.7345 155.798C54.8836 157.068 54.0975 158.702 52.9482 158.943C50.2265 158.399 44.2993 157.613 38.8559 157.31C33.4124 157.008 31.1746 157.855 28.9972 157.976C27.2553 158.073 26.457 156.847 26.2755 156.222C25.0054 151.444 31.2956 151.202 38.6139 151.927C44.4686 152.508 51.1338 154.75 53.7345 155.798Z" fill="url(#paint7_linear_1_15366)"/>
<path d="M52.8732 160.905C54.1874 161.841 53.6543 163.569 52.646 164.024C50.0319 164.074 44.6506 164.47 39.5816 165.294C34.5126 166.117 32.7299 167.766 30.7513 168.318C29.1683 168.759 27.8806 167.592 27.5456 166.866C25.7588 162.995 31.2996 160.976 38.1792 160.162C43.6829 159.511 50.2684 160.467 52.8732 160.905Z" fill="url(#paint8_linear_1_15366)"/>
<g filter="url(#filter5_f_1_15366)">
<path d="M92.8835 91.7379C70.8195 88.6412 56.4328 107.191 53.207 117.029C64.8196 67.1918 92.8835 78.1899 111.754 82.5447C126.85 86.0285 140.06 82.5447 140.06 82.5447C197.155 63.079 198.365 123.077 198.365 123.077C198.365 123.077 170.301 84.9638 146.108 91.7379C121.915 98.5121 120.463 95.6088 92.8835 91.7379Z" fill="#FF4AC0"/>
</g>
<path d="M57.8034 146.786C54.1745 141.706 50.6906 134.932 51.7551 126.222C51.8668 125.309 51.9703 124.392 52.0744 123.471C53.2102 113.414 54.4062 102.825 66.8757 90.054C79.8226 76.7938 92.9498 79.4853 109.135 82.804C111.702 83.3301 114.345 83.872 117.076 84.3686C118.54 84.5313 121.894 84.8253 125.423 84.9328C128.951 84.8253 132.305 84.5313 133.769 84.3686C136.501 83.872 139.144 83.3301 141.71 82.804C157.896 79.4853 171.023 76.7938 183.97 90.054C196.439 102.825 197.635 113.414 198.771 123.471C198.875 124.392 198.979 125.309 199.09 126.222C200.155 134.932 196.671 141.706 193.042 146.786C190.42 151.406 190.931 157.395 191.388 162.743C191.553 164.677 191.712 166.527 191.712 168.197C191.953 184.165 170.301 192.269 154.092 193.479C142.927 194.312 131.559 194.308 125.423 194.163C119.287 194.308 107.919 194.312 96.754 193.479C80.5447 192.269 58.892 184.165 59.1339 168.197C59.1339 166.527 59.292 164.677 59.4572 162.743C59.9141 157.395 60.4258 151.406 57.8034 146.786Z" fill="url(#paint9_linear_1_15366)"/>
<mask id="mask1_1_15366" style="mask-type:alpha" maskUnits="userSpaceOnUse" x="51" y="80" width="149" height="115">
<path d="M57.756 146.833C54.1272 141.752 50.6433 134.978 51.7078 126.269C51.8194 125.355 51.923 124.438 52.027 123.517C53.1629 113.46 54.3588 102.872 66.8283 90.1004C79.7753 76.8401 92.9025 79.5317 109.088 82.8503C111.654 83.3765 114.297 83.9184 117.029 84.415C118.493 84.5777 121.847 84.8717 125.375 84.9791C128.904 84.8717 132.258 84.5777 133.722 84.415C136.453 83.9184 139.097 83.3765 141.663 82.8503C157.848 79.5317 170.975 76.8401 183.922 90.1004C196.392 102.872 197.588 113.46 198.724 123.517C198.828 124.438 198.931 125.355 199.043 126.269C200.107 134.978 196.624 141.752 192.995 146.833C190.372 151.452 190.884 157.442 191.341 162.789C191.506 164.723 191.664 166.573 191.664 168.244C191.906 184.211 170.253 192.316 154.044 193.525C142.879 194.358 131.511 194.355 125.375 194.209C119.239 194.355 107.871 194.358 96.7066 193.525C80.4973 192.316 58.8447 184.211 59.0866 168.244C59.0866 166.573 59.2446 164.723 59.4099 162.789C59.8667 157.442 60.3784 151.452 57.756 146.833Z" fill="url(#paint10_linear_1_15366)"/>
</mask>
<g mask="url(#mask1_1_15366)">
<g opacity="0.35" filter="url(#filter6_f_1_15366)">
<ellipse cx="156.027" cy="107.292" rx="30.1202" ry="21.1083" fill="#FFC8FE"/>
</g>
<g opacity="0.35" filter="url(#filter7_f_1_15366)">
<ellipse cx="88.9177" cy="161.747" rx="29.4773" ry="20.6712" transform="rotate(27.7405 88.9177 161.747)" fill="#FFC8FE"/>
</g>
<g opacity="0.35" filter="url(#filter8_f_1_15366)">
<ellipse cx="29.429" cy="20.6373" rx="29.429" ry="20.6373" transform="matrix(-0.885065 0.465468 0.465468 0.885065 174.492 132.15)" fill="#FFC8FE"/>
</g>
<g opacity="0.35" filter="url(#filter9_f_1_15366)">
<ellipse cx="92.6412" cy="107.292" rx="30.1202" ry="21.1083" fill="#FFC8FE"/>
</g>
<g opacity="0.65" filter="url(#filter10_f_1_15366)">
<ellipse cx="79.4692" cy="130.88" rx="29.5759" ry="20.7454" fill="#FF25BA"/>
</g>
<g opacity="0.65" filter="url(#filter11_f_1_15366)">
<ellipse cx="183.56" cy="129.791" rx="30.1202" ry="21.1083" fill="#FF25BA"/>
</g>
<g filter="url(#filter12_f_1_15366)">
<ellipse cx="125.241" cy="145.88" rx="4.41521" ry="3.68943" fill="#FF4AC0"/>
</g>
<g opacity="0.68" filter="url(#filter13_f_1_15366)">
<ellipse cx="32.2386" cy="19.0973" rx="32.2386" ry="19.0973" transform="matrix(0.919252 -0.393669 -0.39367 -0.919252 125.844 158.635)" fill="url(#paint11_linear_1_15366)"/>
</g>
<g opacity="0.62" filter="url(#filter14_f_1_15366)">
<ellipse cx="98.0502" cy="127.662" rx="32.2386" ry="19.8876" transform="rotate(-156.817 98.0502 127.662)" fill="url(#paint12_linear_1_15366)"/>
</g>
<g opacity="0.3" filter="url(#filter15_f_1_15366)">
<ellipse cx="20.685" cy="13.9109" rx="20.685" ry="13.9109" transform="matrix(1 0 0 -1 105.705 150.658)" fill="#FF25BA"/>
</g>
<g opacity="0.4" filter="url(#filter16_f_1_15366)">
<ellipse cx="76.4497" cy="30.846" rx="76.4497" ry="30.846" transform="matrix(1 0 0 -1 48.9731 235.817)" fill="#FF25BA"/>
</g>
<g opacity="0.25" filter="url(#filter17_f_1_15366)">
<path d="M59.0867 129.293C52.7966 99.2937 83.57 78.1942 97.3116 82.2586C114.489 87.3391 120.053 87.5812 127.553 87.5812C127.665 87.5795 127.777 87.578 127.888 87.5766C135.779 87.3696 160.495 80.2238 171.826 83.7103C183.323 87.2478 200.374 103.649 197.47 124.455C182.995 98.3989 167.894 87.0637 127.888 87.5766C127.773 87.5796 127.661 87.5812 127.553 87.5812C87.2957 88.1618 65.3004 99.2994 59.0867 129.293Z" fill="white"/>
</g>
<g opacity="0.64" filter="url(#filter18_f_1_15366)">
<ellipse cx="66.5733" cy="149.388" rx="1.99592" ry="1.51206" fill="white"/>
</g>
<g opacity="0.64" filter="url(#filter19_f_1_15366)">
<ellipse cx="184.03" cy="147.815" rx="1.99592" ry="1.51207" fill="white"/>
</g>
<g opacity="0.5" filter="url(#filter20_f_1_15366)">
<ellipse cx="12.9432" cy="11.915" rx="12.9432" ry="11.915" transform="matrix(1 0 0 -1 113.931 162.633)" fill="#FFC8FE"/>
</g>
</g>
<g filter="url(#filter21_f_1_15366)">
<path d="M58.8923 163.238C59.9291 155.98 57.8439 146.948 57.4407 146.061C58.0859 147.109 60.965 150.174 64.9405 168.56C67.6837 181.248 84.2344 190.413 95.847 194.145C57.4407 186.887 57.6826 171.706 58.8923 163.238Z" fill="#FF25BA"/>
</g>
<g filter="url(#filter22_f_1_15366)">
<path d="M190.078 163.359C189.041 156.101 191.127 147.069 191.53 146.182C190.885 147.23 188.005 150.294 184.03 168.681C181.287 181.368 164.736 190.534 153.123 194.265C191.53 187.007 191.288 171.826 190.078 163.359Z" fill="#FF25BA"/>
</g>
<g filter="url(#filter23_i_1_15366)">
<path d="M198.728 77.2326C193.212 67.6522 181.43 59.6121 176.228 56.7895C170.664 54.6122 175.745 51.7091 182.761 49.2897C189.776 46.8703 201.389 44.451 204.171 46.8703C206.954 49.2896 205.139 64.2894 203.325 72.6359C201.873 79.3132 199.655 78.4826 198.728 77.2326Z" fill="#FF80D2"/>
</g>
<mask id="mask2_1_15366" style="mask-type:alpha" maskUnits="userSpaceOnUse" x="173" y="45" width="33" height="34">
<path d="M198.728 77.2326C193.212 67.6522 181.43 59.6121 176.228 56.7895C170.664 54.6122 175.745 51.7091 182.76 49.2897C189.776 46.8703 201.389 44.451 204.171 46.8703C206.953 49.2896 205.139 64.2894 203.324 72.6359C201.873 79.3132 199.655 78.4826 198.728 77.2326Z" fill="#FF4AC0"/>
</mask>
<g mask="url(#mask2_1_15366)">
<g filter="url(#filter24_f_1_15366)">
<ellipse cx="191.253" cy="61.9014" rx="10.2817" ry="12.3396" transform="rotate(44.8827 191.253 61.9014)" fill="#FF4AC0"/>
</g>
<g filter="url(#filter25_f_1_15366)">
<path d="M210.605 61.1577C205.407 75.0141 186.346 69.0243 182.881 69.0243C187.117 76.9148 197.551 90.7327 205.406 82.8807C215.225 73.0658 215.803 47.3012 210.605 61.1577Z" fill="#B75BFF"/>
</g>
<g filter="url(#filter26_f_1_15366)">
<path d="M189.521 69.2713C175.664 64.0733 181.654 45.0132 181.654 41.5479C173.764 45.7833 159.946 56.2179 167.798 64.0728C177.613 73.8914 203.377 74.4694 189.521 69.2713Z" fill="#B75BFF"/>
</g>
</g>
<g filter="url(#filter27_i_1_15366)">
<path d="M51.9794 77.2326C57.4954 67.6522 69.2773 59.6121 74.4788 56.7895C80.0432 54.6122 74.9625 51.7091 67.9467 49.2897C60.9309 46.8703 49.3179 44.451 46.5358 46.8703C43.7537 49.2896 45.5683 64.2894 47.3827 72.6359C48.8343 79.3132 51.052 78.4826 51.9794 77.2326Z" fill="#FF80D2"/>
</g>
<mask id="mask3_1_15366" style="mask-type:alpha" maskUnits="userSpaceOnUse" x="45" y="45" width="32" height="34">
<path d="M51.9792 77.2326C57.4951 67.6522 69.2771 59.6121 74.4786 56.7895C80.043 54.6122 74.9623 51.7091 67.9465 49.2897C60.9306 46.8703 49.3177 44.451 46.5355 46.8703C43.7534 49.2896 45.568 64.2894 47.3825 72.6359C48.8341 79.3132 51.0518 78.4826 51.9792 77.2326Z" fill="#FF4AC0"/>
</mask>
<g mask="url(#mask3_1_15366)">
<g filter="url(#filter28_f_1_15366)">
<ellipse cx="10.2817" cy="12.3396" rx="10.2817" ry="12.3396" transform="matrix(-0.708554 0.705657 0.705657 0.708553 58.0312 45.9028)" fill="#FF4AC0"/>
</g>
<g filter="url(#filter29_f_1_15366)">
<path d="M40.1022 61.1577C45.3003 75.0141 64.3603 69.0243 67.8257 69.0243C63.5902 76.9148 53.1556 90.7327 45.3007 82.8807C35.4821 73.0658 34.9041 47.3012 40.1022 61.1577Z" fill="#B75BFF"/>
</g>
<g filter="url(#filter30_f_1_15366)">
<path d="M60.1774 68.7389C74.1322 63.8108 68.5136 44.6381 68.5809 41.1734C76.3876 45.5613 90.0004 56.2622 81.9973 63.9631C71.9936 73.5893 46.2227 73.6669 60.1774 68.7389Z" fill="#B75BFF"/>
</g>
</g>
<mask id="mask4_1_15366" style="mask-type:alpha" maskUnits="userSpaceOnUse" x="45" y="45" width="32" height="34">
<path d="M51.9794 77.2326C57.4954 67.6522 69.2773 59.6121 74.4788 56.7895C80.0432 54.6122 74.9625 51.7091 67.9467 49.2897C60.9309 46.8703 49.3179 44.451 46.5358 46.8703C43.7537 49.2896 45.5683 64.2894 47.3827 72.6359C48.8343 79.3132 51.052 78.4826 51.9794 77.2326Z" fill="#FF80D2"/>
</mask>
<g mask="url(#mask4_1_15366)">
<g filter="url(#filter31_f_1_15366)">
<ellipse cx="10.2817" cy="12.3396" rx="10.2817" ry="12.3396" transform="matrix(-0.708553 0.705657 0.705657 0.708553 59.4309 45.9028)" fill="#FF4AC0"/>
</g>
</g>
<path d="M144.536 132.272C143.859 142.239 145.988 144.913 147.802 146.122C147.802 146.122 148.952 146.908 151.552 146.908C154.554 146.908 162.601 147.513 166.25 147.876C172.056 147.876 175.322 141.284 176.35 138.259C182.217 130.155 180.463 108.26 165.947 106.325C151.431 104.389 145.383 119.812 144.536 132.272Z" fill="#F9E1F2"/>
<path d="M160.685 147.393C156.863 147.005 153.165 146.909 151.795 146.909C146.067 147.197 145.45 142.962 145.027 140.06L145.02 140.014C144.682 129.514 149.194 123.139 151.492 121.264C156.815 116.486 166.915 118.24 170.06 126.042C173.205 133.844 168.971 143.703 167.58 146.122C166.189 148.542 165.464 147.876 160.685 147.393Z" fill="#352075"/>
<path d="M160.685 147.393C156.863 147.005 153.165 146.909 151.795 146.909C146.067 147.197 145.45 142.962 145.027 140.06L145.02 140.014C144.682 129.514 149.194 123.139 151.492 121.264C156.815 116.486 166.915 118.24 170.06 126.042C173.205 133.844 168.971 143.703 167.58 146.122C166.189 148.542 165.464 147.876 160.685 147.393Z" fill="url(#paint13_radial_1_15366)" fill-opacity="0.6"/>
<path d="M106.185 132.271C106.862 142.239 104.733 144.912 102.919 146.122C102.919 146.122 101.769 146.908 99.1685 146.908C96.167 146.908 88.1204 147.513 84.4713 147.876C78.665 147.876 75.3993 141.283 74.3711 138.259C68.5043 130.154 70.2583 108.26 84.7741 106.324C99.2898 104.389 105.338 119.812 106.185 132.271Z" fill="#F9E1F2"/>
<mask id="mask5_1_15366" style="mask-type:alpha" maskUnits="userSpaceOnUse" x="71" y="106" width="109" height="42">
<path d="M144.536 132.271C143.859 142.239 145.988 144.912 147.802 146.122C147.802 146.122 148.951 146.908 151.552 146.908C154.554 146.908 162.6 147.513 166.249 147.876C172.056 147.876 175.321 141.283 176.35 138.259C182.216 130.154 180.462 108.26 165.947 106.324C151.431 104.389 145.383 119.812 144.536 132.271Z" fill="url(#paint14_linear_1_15366)"/>
<path d="M106.185 132.271C106.862 142.239 104.733 144.912 102.919 146.122C102.919 146.122 101.769 146.908 99.1685 146.908C96.167 146.908 88.1204 147.513 84.4713 147.876C78.665 147.876 75.3993 141.283 74.3711 138.259C68.5043 130.154 70.2583 108.26 84.7741 106.324C99.2898 104.389 105.338 119.812 106.185 132.271Z" fill="url(#paint15_linear_1_15366)"/>
</mask>
<g mask="url(#mask5_1_15366)">
<g filter="url(#filter32_f_1_15366)">
<path d="M170.359 107.226C155.964 102.267 147.913 115.573 146.229 121.984C146.611 120.532 147.537 119.262 147.617 119.02C158.138 102.872 174.23 107.226 177.133 119.565C179.061 127.76 177.035 135.391 175.684 139.705C182.576 128.153 179.673 110.436 170.359 107.226Z" fill="white"/>
</g>
<g filter="url(#filter33_f_1_15366)">
<path d="M79.8733 107.226C94.2681 102.267 102.319 115.573 104.002 121.984C103.621 120.532 102.695 119.262 102.615 119.02C92.094 102.872 76.0024 107.226 73.0993 119.565C71.1709 127.76 73.1968 135.391 74.5475 139.705C67.6558 128.153 70.559 110.436 79.8733 107.226Z" fill="white"/>
</g>
</g>
<path d="M90.0887 147.392C93.9112 147.004 97.6087 146.908 98.9797 146.908C104.707 147.197 105.324 142.961 105.747 140.059L105.754 140.013C106.092 129.513 101.58 123.138 99.2821 121.263C93.9596 116.485 83.8591 118.239 80.714 126.041C77.5689 133.843 81.8027 143.702 83.1938 146.121C84.5849 148.541 85.3106 147.875 90.0887 147.392Z" fill="#352075"/>
<path d="M90.0887 147.392C93.9112 147.004 97.6087 146.908 98.9797 146.908C104.707 147.197 105.324 142.961 105.747 140.059L105.754 140.013C106.092 129.513 101.58 123.138 99.2821 121.263C93.9596 116.485 83.8591 118.239 80.714 126.041C77.5689 133.843 81.8027 143.702 83.1938 146.121C84.5849 148.541 85.3106 147.875 90.0887 147.392Z" fill="url(#paint16_radial_1_15366)" fill-opacity="0.6"/>
<g opacity="0.45" filter="url(#filter34_f_1_15366)">
<path d="M170.721 106.385C156.326 101.425 148.275 114.731 146.592 121.142C146.973 119.691 147.899 118.421 147.98 118.179C158.5 102.03 174.592 106.385 177.495 118.723C179.424 126.918 177.64 134.549 176.289 138.863C183.181 127.312 181.188 109.991 170.721 106.385Z" fill="#B518B8"/>
</g>
<g opacity="0.45" filter="url(#filter35_f_1_15366)">
<path d="M79.9861 106.385C94.3809 101.425 102.432 114.731 104.115 121.142C103.734 119.691 102.808 118.421 102.727 118.179C92.2068 102.03 76.1152 106.385 73.2121 118.723C71.2837 126.918 73.0676 134.549 74.4184 138.863C67.5267 127.312 69.5193 109.991 79.9861 106.385Z" fill="#B518B8"/>
</g>
<path d="M170.721 106.385C156.326 101.425 148.275 114.731 146.592 121.142C146.973 119.691 147.899 118.421 147.98 118.179C158.5 102.03 174.592 106.385 177.495 118.723C179.424 126.918 177.64 134.549 176.289 138.863C183.181 127.312 181.188 109.991 170.721 106.385Z" fill="#B518B8"/>
<path d="M79.9871 106.385C94.3819 101.425 102.433 114.731 104.116 121.142C103.735 119.691 102.809 118.421 102.728 118.179C92.2078 102.03 76.1162 106.385 73.213 118.723C71.2847 126.918 73.0686 134.549 74.4194 138.863C67.5277 127.312 69.5203 109.991 79.9871 106.385Z" fill="#B518B8"/>
<ellipse cx="167.214" cy="123.591" rx="2.52677" ry="6.08662" transform="rotate(-112.034 167.214 123.591)" fill="white"/>
<ellipse cx="97.0883" cy="124.228" rx="2.28543" ry="5.50527" transform="rotate(-112.034 97.0883 124.228)" fill="white"/>
<g filter="url(#filter36_f_1_15366)">
<ellipse cx="98.215" cy="123.698" rx="1.8586" ry="4.47708" transform="rotate(-112.034 98.215 123.698)" fill="white"/>
</g>
<g filter="url(#filter37_d_1_15366)">
<path d="M121.457 159.083C124.879 159.873 132.948 160.006 137.852 154.222" stroke="#352075" stroke-width="1.21449" stroke-linecap="round"/>
</g>
<ellipse cx="125.302" cy="144.367" rx="4.35473" ry="3.02412" fill="#352075"/>
<g filter="url(#filter38_f_1_15366)">
<circle cx="126.633" cy="143.158" r="0.725785" fill="white"/>
</g>
<defs>
<filter id="filter0_f_1_15366" x="26.4885" y="90.5522" width="106.058" height="114.042" filterUnits="userSpaceOnUse" color-interpolation-filters="sRGB">
<feFlood flood-opacity="0" result="BackgroundImageFix"/>
<feBlend mode="normal" in="SourceGraphic" in2="BackgroundImageFix" result="shape"/>
<feGaussianBlur stdDeviation="10.396" result="effect1_foregroundBlur_1_15366"/>
</filter>
<filter id="filter1_f_1_15366" x="76.689" y="4.90917" width="106.058" height="114.042" filterUnits="userSpaceOnUse" color-interpolation-filters="sRGB">
<feFlood flood-opacity="0" result="BackgroundImageFix"/>
<feBlend mode="normal" in="SourceGraphic" in2="BackgroundImageFix" result="shape"/>
<feGaussianBlur stdDeviation="10.396" result="effect1_foregroundBlur_1_15366"/>
</filter>
<filter id="filter2_f_1_15366" x="162.695" y="2.36865" width="82.1072" height="87.0669" filterUnits="userSpaceOnUse" color-interpolation-filters="sRGB">
<feFlood flood-opacity="0" result="BackgroundImageFix"/>
<feBlend mode="normal" in="SourceGraphic" in2="BackgroundImageFix" result="shape"/>
<feGaussianBlur stdDeviation="10.396" result="effect1_foregroundBlur_1_15366"/>
</filter>
<filter id="filter3_f_1_15366" x="5.68212" y="-1.98585" width="82.1072" height="87.0669" filterUnits="userSpaceOnUse" color-interpolation-filters="sRGB">
<feFlood flood-opacity="0" result="BackgroundImageFix"/>
<feBlend mode="normal" in="SourceGraphic" in2="BackgroundImageFix" result="shape"/>
<feGaussianBlur stdDeviation="10.396" result="effect1_foregroundBlur_1_15366"/>
</filter>
<filter id="filter4_f_1_15366" x="117.212" y="90.189" width="106.058" height="114.042" filterUnits="userSpaceOnUse" color-interpolation-filters="sRGB">
<feFlood flood-opacity="0" result="BackgroundImageFix"/>
<feBlend mode="normal" in="SourceGraphic" in2="BackgroundImageFix" result="shape"/>
<feGaussianBlur stdDeviation="10.396" result="effect1_foregroundBlur_1_15366"/>
</filter>
<filter id="filter5_f_1_15366" x="40.2606" y="65.454" width="171.051" height="70.5701" filterUnits="userSpaceOnUse" color-interpolation-filters="sRGB">
<feFlood flood-opacity="0" result="BackgroundImageFix"/>
<feBlend mode="normal" in="SourceGraphic" in2="BackgroundImageFix" result="shape"/>
<feGaussianBlur stdDeviation="6.47321" result="effect1_foregroundBlur_1_15366"/>
</filter>
<filter id="filter6_f_1_15366" x="107.689" y="67.9663" width="96.6751" height="78.6514" filterUnits="userSpaceOnUse" color-interpolation-filters="sRGB">
<feFlood flood-opacity="0" result="BackgroundImageFix"/>
<feBlend mode="normal" in="SourceGraphic" in2="BackgroundImageFix" result="shape"/>
<feGaussianBlur stdDeviation="9.10864" result="effect1_foregroundBlur_1_15366"/>
</filter>
<filter id="filter7_f_1_15366" x="42.8857" y="120.66" width="92.064" height="82.1748" filterUnits="userSpaceOnUse" color-interpolation-filters="sRGB">
<feFlood flood-opacity="0" result="BackgroundImageFix"/>
<feBlend mode="normal" in="SourceGraphic" in2="BackgroundImageFix" result="shape"/>
<feGaussianBlur stdDeviation="9.10864" result="effect1_foregroundBlur_1_15366"/>
</filter>
<filter id="filter8_f_1_15366" x="112.065" y="123.064" width="91.9724" height="82.1001" filterUnits="userSpaceOnUse" color-interpolation-filters="sRGB">
<feFlood flood-opacity="0" result="BackgroundImageFix"/>
<feBlend mode="normal" in="SourceGraphic" in2="BackgroundImageFix" result="shape"/>
<feGaussianBlur stdDeviation="9.10864" result="effect1_foregroundBlur_1_15366"/>
</filter>
<filter id="filter9_f_1_15366" x="44.3037" y="67.9663" width="96.6751" height="78.6514" filterUnits="userSpaceOnUse" color-interpolation-filters="sRGB">
<feFlood flood-opacity="0" result="BackgroundImageFix"/>
<feBlend mode="normal" in="SourceGraphic" in2="BackgroundImageFix" result="shape"/>
<feGaussianBlur stdDeviation="9.10864" result="effect1_foregroundBlur_1_15366"/>
</filter>
<filter id="filter10_f_1_15366" x="31.676" y="91.9175" width="95.5864" height="77.9253" filterUnits="userSpaceOnUse" color-interpolation-filters="sRGB">
<feFlood flood-opacity="0" result="BackgroundImageFix"/>
<feBlend mode="normal" in="SourceGraphic" in2="BackgroundImageFix" result="shape"/>
<feGaussianBlur stdDeviation="9.10864" result="effect1_foregroundBlur_1_15366"/>
</filter>
<filter id="filter11_f_1_15366" x="135.222" y="90.4658" width="96.6751" height="78.6514" filterUnits="userSpaceOnUse" color-interpolation-filters="sRGB">
<feFlood flood-opacity="0" result="BackgroundImageFix"/>
<feBlend mode="normal" in="SourceGraphic" in2="BackgroundImageFix" result="shape"/>
<feGaussianBlur stdDeviation="9.10864" result="effect1_foregroundBlur_1_15366"/>
</filter>
<filter id="filter12_f_1_15366" x="118.773" y="140.138" width="12.9353" height="11.4839" filterUnits="userSpaceOnUse" color-interpolation-filters="sRGB">
<feFlood flood-opacity="0" result="BackgroundImageFix"/>
<feBlend mode="normal" in="SourceGraphic" in2="BackgroundImageFix" result="shape"/>
<feGaussianBlur stdDeviation="1.02624" result="effect1_foregroundBlur_1_15366"/>
</filter>
<filter id="filter13_f_1_15366" x="99.1631" y="88.5073" width="97.5974" height="79.7627" filterUnits="userSpaceOnUse" color-interpolation-filters="sRGB">
<feFlood flood-opacity="0" result="BackgroundImageFix"/>
<feBlend mode="normal" in="SourceGraphic" in2="BackgroundImageFix" result="shape"/>
<feGaussianBlur stdDeviation="9.10864" result="effect1_foregroundBlur_1_15366"/>
</filter>
<filter id="filter14_f_1_15366" x="49.1733" y="87.188" width="97.7539" height="80.9487" filterUnits="userSpaceOnUse" color-interpolation-filters="sRGB">
<feFlood flood-opacity="0" result="BackgroundImageFix"/>
<feBlend mode="normal" in="SourceGraphic" in2="BackgroundImageFix" result="shape"/>
<feGaussianBlur stdDeviation="9.10864" result="effect1_foregroundBlur_1_15366"/>
</filter>
<filter id="filter15_f_1_15366" x="93.4269" y="110.557" width="65.9268" height="52.3787" filterUnits="userSpaceOnUse" color-interpolation-filters="sRGB">
<feFlood flood-opacity="0" result="BackgroundImageFix"/>
<feBlend mode="normal" in="SourceGraphic" in2="BackgroundImageFix" result="shape"/>
<feGaussianBlur stdDeviation="6.13923" result="effect1_foregroundBlur_1_15366"/>
</filter>
<filter id="filter16_f_1_15366" x="31.9218" y="157.074" width="187.002" height="95.7947" filterUnits="userSpaceOnUse" color-interpolation-filters="sRGB">
<feFlood flood-opacity="0" result="BackgroundImageFix"/>
<feBlend mode="normal" in="SourceGraphic" in2="BackgroundImageFix" result="shape"/>
<feGaussianBlur stdDeviation="8.52569" result="effect1_foregroundBlur_1_15366"/>
</filter>
<filter id="filter17_f_1_15366" x="44.3922" y="67.9" width="167.263" height="75.2502" filterUnits="userSpaceOnUse" color-interpolation-filters="sRGB">
<feFlood flood-opacity="0" result="BackgroundImageFix"/>
<feBlend mode="normal" in="SourceGraphic" in2="BackgroundImageFix" result="shape"/>
<feGaussianBlur stdDeviation="6.92864" result="effect1_foregroundBlur_1_15366"/>
</filter>
<filter id="filter18_f_1_15366" x="61.0311" y="144.329" width="11.0845" height="10.1165" filterUnits="userSpaceOnUse" color-interpolation-filters="sRGB">
<feFlood flood-opacity="0" result="BackgroundImageFix"/>
<feBlend mode="normal" in="SourceGraphic" in2="BackgroundImageFix" result="shape"/>
<feGaussianBlur stdDeviation="1.77315" result="effect1_foregroundBlur_1_15366"/>
</filter>
<filter id="filter19_f_1_15366" x="178.488" y="142.756" width="11.0845" height="10.1165" filterUnits="userSpaceOnUse" color-interpolation-filters="sRGB">
<feFlood flood-opacity="0" result="BackgroundImageFix"/>
<feBlend mode="normal" in="SourceGraphic" in2="BackgroundImageFix" result="shape"/>
<feGaussianBlur stdDeviation="1.77315" result="effect1_foregroundBlur_1_15366"/>
</filter>
<filter id="filter20_f_1_15366" x="98.2398" y="123.112" width="57.2688" height="55.2124" filterUnits="userSpaceOnUse" color-interpolation-filters="sRGB">
<feFlood flood-opacity="0" result="BackgroundImageFix"/>
<feBlend mode="normal" in="SourceGraphic" in2="BackgroundImageFix" result="shape"/>
<feGaussianBlur stdDeviation="7.84558" result="effect1_foregroundBlur_1_15366"/>
</filter>
<filter id="filter21_f_1_15366" x="48.0406" y="136.661" width="57.2065" height="66.8837" filterUnits="userSpaceOnUse" color-interpolation-filters="sRGB">
<feFlood flood-opacity="0" result="BackgroundImageFix"/>
<feBlend mode="normal" in="SourceGraphic" in2="BackgroundImageFix" result="shape"/>
<feGaussianBlur stdDeviation="4.70006" result="effect1_foregroundBlur_1_15366"/>
</filter>
<filter id="filter22_f_1_15366" x="143.723" y="136.782" width="57.2065" height="66.8837" filterUnits="userSpaceOnUse" color-interpolation-filters="sRGB">
<feFlood flood-opacity="0" result="BackgroundImageFix"/>
<feBlend mode="normal" in="SourceGraphic" in2="BackgroundImageFix" result="shape"/>
<feGaussianBlur stdDeviation="4.70006" result="effect1_foregroundBlur_1_15366"/>
</filter>
<filter id="filter23_i_1_15366" x="172.645" y="45.8682" width="32.9598" height="32.7065" filterUnits="userSpaceOnUse" color-interpolation-filters="sRGB">
<feFlood flood-opacity="0" result="BackgroundImageFix"/>
<feBlend mode="normal" in="SourceGraphic" in2="BackgroundImageFix" result="shape"/>
<feColorMatrix in="SourceAlpha" type="matrix" values="0 0 0 0 0 0 0 0 0 0 0 0 0 0 0 0 0 0 127 0" result="hardAlpha"/>
<feOffset dx="-1.21449" dy="0.485794"/>
<feGaussianBlur stdDeviation="3.74062"/>
<feComposite in2="hardAlpha" operator="arithmetic" k2="-1" k3="1"/>
<feColorMatrix type="matrix" values="0 0 0 0 1 0 0 0 0 1 0 0 0 0 1 0 0 0 0.35 0"/>
<feBlend mode="normal" in2="shape" result="effect1_innerShadow_1_15366"/>
</filter>
<filter id="filter24_f_1_15366" x="170.123" y="40.7629" width="42.2603" height="42.2769" filterUnits="userSpaceOnUse" color-interpolation-filters="sRGB">
<feFlood flood-opacity="0" result="BackgroundImageFix"/>
<feBlend mode="normal" in="SourceGraphic" in2="BackgroundImageFix" result="shape"/>
<feGaussianBlur stdDeviation="4.88831" result="effect1_foregroundBlur_1_15366"/>
</filter>
<filter id="filter25_f_1_15366" x="175.776" y="50.0476" width="45.1765" height="42.2734" filterUnits="userSpaceOnUse" color-interpolation-filters="sRGB">
<feFlood flood-opacity="0" result="BackgroundImageFix"/>
<feBlend mode="normal" in="SourceGraphic" in2="BackgroundImageFix" result="shape"/>
<feGaussianBlur stdDeviation="3.55237" result="effect1_foregroundBlur_1_15366"/>
</filter>
<filter id="filter26_f_1_15366" x="158.358" y="34.4431" width="42.2732" height="45.1763" filterUnits="userSpaceOnUse" color-interpolation-filters="sRGB">
<feFlood flood-opacity="0" result="BackgroundImageFix"/>
<feBlend mode="normal" in="SourceGraphic" in2="BackgroundImageFix" result="shape"/>
<feGaussianBlur stdDeviation="3.55237" result="effect1_foregroundBlur_1_15366"/>
</filter>
<filter id="filter27_i_1_15366" x="43.8881" y="45.8682" width="32.9598" height="32.7065" filterUnits="userSpaceOnUse" color-interpolation-filters="sRGB">
<feFlood flood-opacity="0" result="BackgroundImageFix"/>
<feBlend mode="normal" in="SourceGraphic" in2="BackgroundImageFix" result="shape"/>
<feColorMatrix in="SourceAlpha" type="matrix" values="0 0 0 0 0 0 0 0 0 0 0 0 0 0 0 0 0 0 127 0" result="hardAlpha"/>
<feOffset dx="-1.21449" dy="0.485794"/>
<feGaussianBlur stdDeviation="3.74062"/>
<feComposite in2="hardAlpha" operator="arithmetic" k2="-1" k3="1"/>
<feColorMatrix type="matrix" values="0 0 0 0 1 0 0 0 0 1 0 0 0 0 1 0 0 0 0.6 0"/>
<feBlend mode="normal" in2="shape" result="effect1_innerShadow_1_15366"/>
</filter>
<filter id="filter28_f_1_15366" x="38.3235" y="40.7629" width="42.2603" height="42.2769" filterUnits="userSpaceOnUse" color-interpolation-filters="sRGB">
<feFlood flood-opacity="0" result="BackgroundImageFix"/>
<feBlend mode="normal" in="SourceGraphic" in2="BackgroundImageFix" result="shape"/>
<feGaussianBlur stdDeviation="4.88831" result="effect1_foregroundBlur_1_15366"/>
</filter>
<filter id="filter29_f_1_15366" x="29.7539" y="50.0476" width="45.1765" height="42.2734" filterUnits="userSpaceOnUse" color-interpolation-filters="sRGB">
<feFlood flood-opacity="0" result="BackgroundImageFix"/>
<feBlend mode="normal" in="SourceGraphic" in2="BackgroundImageFix" result="shape"/>
<feGaussianBlur stdDeviation="3.55237" result="effect1_foregroundBlur_1_15366"/>
</filter>
<filter id="filter30_f_1_15366" x="49.0207" y="34.0686" width="42.5183" height="44.9995" filterUnits="userSpaceOnUse" color-interpolation-filters="sRGB">
<feFlood flood-opacity="0" result="BackgroundImageFix"/>
<feBlend mode="normal" in="SourceGraphic" in2="BackgroundImageFix" result="shape"/>
<feGaussianBlur stdDeviation="3.55237" result="effect1_foregroundBlur_1_15366"/>
</filter>
<filter id="filter31_f_1_15366" x="39.7231" y="40.7629" width="42.2603" height="42.2769" filterUnits="userSpaceOnUse" color-interpolation-filters="sRGB">
<feFlood flood-opacity="0" result="BackgroundImageFix"/>
<feBlend mode="normal" in="SourceGraphic" in2="BackgroundImageFix" result="shape"/>
<feGaussianBlur stdDeviation="4.88831" result="effect1_foregroundBlur_1_15366"/>
</filter>
<filter id="filter32_f_1_15366" x="142.878" y="102.791" width="39.9584" height="40.2665" filterUnits="userSpaceOnUse" color-interpolation-filters="sRGB">
<feFlood flood-opacity="0" result="BackgroundImageFix"/>
<feBlend mode="normal" in="SourceGraphic" in2="BackgroundImageFix" result="shape"/>
<feGaussianBlur stdDeviation="1.67599" result="effect1_foregroundBlur_1_15366"/>
</filter>
<filter id="filter33_f_1_15366" x="67.3961" y="102.791" width="39.9584" height="40.2665" filterUnits="userSpaceOnUse" color-interpolation-filters="sRGB">
<feFlood flood-opacity="0" result="BackgroundImageFix"/>
<feBlend mode="normal" in="SourceGraphic" in2="BackgroundImageFix" result="shape"/>
<feGaussianBlur stdDeviation="1.67599" result="effect1_foregroundBlur_1_15366"/>
</filter>
<filter id="filter34_f_1_15366" x="143.872" y="102.58" width="39.1714" height="39.0034" filterUnits="userSpaceOnUse" color-interpolation-filters="sRGB">
<feFlood flood-opacity="0" result="BackgroundImageFix"/>
<feBlend mode="normal" in="SourceGraphic" in2="BackgroundImageFix" result="shape"/>
<feGaussianBlur stdDeviation="1.36022" result="effect1_foregroundBlur_1_15366"/>
</filter>
<filter id="filter35_f_1_15366" x="67.6643" y="102.58" width="39.1714" height="39.0034" filterUnits="userSpaceOnUse" color-interpolation-filters="sRGB">
<feFlood flood-opacity="0" result="BackgroundImageFix"/>
<feBlend mode="normal" in="SourceGraphic" in2="BackgroundImageFix" result="shape"/>
<feGaussianBlur stdDeviation="1.36022" result="effect1_foregroundBlur_1_15366"/>
</filter>
<filter id="filter36_f_1_15366" x="91.8686" y="119.154" width="12.6927" height="9.087" filterUnits="userSpaceOnUse" color-interpolation-filters="sRGB">
<feFlood flood-opacity="0" result="BackgroundImageFix"/>
<feBlend mode="normal" in="SourceGraphic" in2="BackgroundImageFix" result="shape"/>
<feGaussianBlur stdDeviation="1.06875" result="effect1_foregroundBlur_1_15366"/>
</filter>
<filter id="filter37_d_1_15366" x="118.749" y="152.121" width="21.8122" height="10.6709" filterUnits="userSpaceOnUse" color-interpolation-filters="sRGB">
<feFlood flood-opacity="0" result="BackgroundImageFix"/>
<feColorMatrix in="SourceAlpha" type="matrix" values="0 0 0 0 0 0 0 0 0 0 0 0 0 0 0 0 0 0 127 0" result="hardAlpha"/>
<feOffset dy="0.607243"/>
<feGaussianBlur stdDeviation="1.05053"/>
<feComposite in2="hardAlpha" operator="out"/>
<feColorMatrix type="matrix" values="0 0 0 0 1 0 0 0 0 0.290196 0 0 0 0 0.752941 0 0 0 1 0"/>
<feBlend mode="normal" in2="BackgroundImageFix" result="effect1_dropShadow_1_15366"/>
<feBlend mode="normal" in="SourceGraphic" in2="effect1_dropShadow_1_15366" result="shape"/>
</filter>
<filter id="filter38_f_1_15366" x="125.203" y="141.728" width="2.86046" height="2.86046" filterUnits="userSpaceOnUse" color-interpolation-filters="sRGB">
<feFlood flood-opacity="0" result="BackgroundImageFix"/>
<feBlend mode="normal" in="SourceGraphic" in2="BackgroundImageFix" result="shape"/>
<feGaussianBlur stdDeviation="0.352201" result="effect1_foregroundBlur_1_15366"/>
</filter>
<radialGradient id="paint0_radial_1_15366" cx="0" cy="0" r="1" gradientUnits="userSpaceOnUse" gradientTransform="translate(125.423 139.045) rotate(93.5077) scale(100.832 102.661)">
<stop offset="0.776699" stop-color="#6348FB"/>
<stop offset="1" stop-color="#6348FB" stop-opacity="0"/>
</radialGradient>
<linearGradient id="paint1_linear_1_15366" x1="125.393" y1="41.543" x2="125.423" y2="209.567" gradientUnits="userSpaceOnUse">
<stop offset="0.251717" stop-color="#E12EFB" stop-opacity="0"/>
<stop offset="1" stop-color="#E12EFB"/>
</linearGradient>
<radialGradient id="paint2_radial_1_15366" cx="0" cy="0" r="1" gradientUnits="userSpaceOnUse" gradientTransform="translate(125.423 139.045) rotate(93.5077) scale(100.832 102.661)">
<stop offset="0.776699" stop-color="#6348FB"/>
<stop offset="1" stop-color="#6348FB" stop-opacity="0"/>
</radialGradient>
<linearGradient id="paint3_linear_1_15366" x1="125.393" y1="41.543" x2="125.423" y2="209.567" gradientUnits="userSpaceOnUse">
<stop offset="0.251717" stop-color="#E12EFB" stop-opacity="0"/>
<stop offset="1" stop-color="#E12EFB"/>
</linearGradient>
<linearGradient id="paint4_linear_1_15366" x1="196.187" y1="162.27" x2="225.708" y2="162.225" gradientUnits="userSpaceOnUse">
<stop stop-color="#AD39FB"/>
<stop offset="0.655703" stop-color="#463FFC"/>
<stop offset="1" stop-color="#AD39FB"/>
</linearGradient>
<linearGradient id="paint5_linear_1_15366" x1="195.794" y1="166.88" x2="223.014" y2="172.826" gradientUnits="userSpaceOnUse">
<stop stop-color="#7B33FB"/>
<stop offset="0.655703" stop-color="#463FFC"/>
<stop offset="1" stop-color="#AD39FB"/>
</linearGradient>
<linearGradient id="paint6_linear_1_15366" x1="196.187" y1="162.27" x2="225.708" y2="162.225" gradientUnits="userSpaceOnUse">
<stop stop-color="#7333FB"/>
<stop offset="0.655703" stop-color="#463FFC"/>
<stop offset="1" stop-color="#AD39FB"/>
</linearGradient>
<linearGradient id="paint7_linear_1_15366" x1="54.2959" y1="158.883" x2="31.0707" y2="156.464" gradientUnits="userSpaceOnUse">
<stop stop-color="#943EFA"/>
<stop offset="0.46085" stop-color="#463FFC"/>
<stop offset="0.925934" stop-color="#933EFA"/>
</linearGradient>
<linearGradient id="paint8_linear_1_15366" x1="54.6727" y1="166.88" x2="30.5867" y2="169.407" gradientUnits="userSpaceOnUse">
<stop stop-color="#9A3DFA"/>
<stop offset="0.552824" stop-color="#463FFC"/>
<stop offset="1" stop-color="#AD39FB"/>
</linearGradient>
<linearGradient id="paint9_linear_1_15366" x1="172.618" y1="51.9502" x2="172.618" y2="194.195" gradientUnits="userSpaceOnUse">
<stop offset="0.244915" stop-color="#FEB9E6"/>
<stop offset="0.9375" stop-color="#FF80D2"/>
</linearGradient>
<linearGradient id="paint10_linear_1_15366" x1="117.271" y1="56.8351" x2="77.9442" y2="181.966" gradientUnits="userSpaceOnUse">
<stop offset="0.0779088" stop-color="white"/>
<stop offset="0.431276" stop-color="#FF80D2"/>
<stop offset="0.942308" stop-color="#FF45BD"/>
</linearGradient>
<linearGradient id="paint11_linear_1_15366" x1="10.924" y1="13.9153" x2="62.7575" y2="33.0783" gradientUnits="userSpaceOnUse">
<stop stop-color="#FF76D4"/>
<stop offset="0.736773" stop-color="#FF25BA"/>
</linearGradient>
<linearGradient id="paint12_linear_1_15366" x1="131.911" y1="135.456" x2="86.0857" y2="105.179" gradientUnits="userSpaceOnUse">
<stop stop-color="#FF25BA"/>
<stop offset="0.920168" stop-color="#FF76D4"/>
</linearGradient>
<radialGradient id="paint13_radial_1_15366" cx="0" cy="0" r="1" gradientUnits="userSpaceOnUse" gradientTransform="translate(167.641 122.595) rotate(126.697) scale(15.9916 14.3259)">
<stop stop-color="#8342FA"/>
<stop offset="0.827466" stop-color="#8342FA" stop-opacity="0"/>
</radialGradient>
<linearGradient id="paint14_linear_1_15366" x1="161.948" y1="106.159" x2="161.94" y2="144.634" gradientUnits="userSpaceOnUse">
<stop offset="0.500582" stop-color="#F9E1F2"/>
<stop offset="1" stop-color="white"/>
</linearGradient>
<linearGradient id="paint15_linear_1_15366" x1="88.7724" y1="106.159" x2="88.781" y2="144.634" gradientUnits="userSpaceOnUse">
<stop offset="0.500582" stop-color="#F9E1F2"/>
<stop offset="1" stop-color="white"/>
</linearGradient>
<radialGradient id="paint16_radial_1_15366" cx="0" cy="0" r="1" gradientUnits="userSpaceOnUse" gradientTransform="translate(97.9643 121.142) rotate(127.747) scale(18.9695 16.9936)">
<stop stop-color="#8342FA"/>
<stop offset="0.827466" stop-color="#8342FA" stop-opacity="0"/>
</radialGradient>
</defs>
</svg>
